<svg xmlns="http://www.w3.org/2000/svg" width="1576.032" height="2861.35" viewBox="0 0 1576.032 2861.35">
  <path id="Yellow" d="M372.64,1280.438H587.677c-30.317-28.683-54.159-52.675-79.628-74.8-15.4-13.376-20.835-26.091-16.882-47.562,7.712-41.885,10.583-84.651,15.891-130.774-69.447,0-135.1-2.9-200.332,1.128-37.186,2.294-69.745,48.528-74.431,91.942-4.705,43.622-16.15,60.828-38.631,54.2-34.711-10.22-23.985-38.671-20.589-62.163,22.339-154.675,45.676-309.2,67.736-463.908,3.078-21.594,9.151-42.7,32.656-37.413,11.309,2.541,20.175,25.916,25.508,41.457,3.526,10.265-1.231,23.356-2.21,35.19-4.686,56.771,23.013,87.444,80.886,87.626,137.158.434,274.309.2,411.467.233,24.84.006,49.746-1.16,74.5.318,23.227,1.38,30.524-8.671,29.552-30.479a740.26,740.26,0,0,1,.1-77.723c1.426-23.6-6.17-35.612-29.831-44.9C745.171,576.374,675.121,450.124,697.259,328.189,719.507,205.594,822.991,115.266,947.81,109.5c120.7-5.58,241.9,83.7,268.366,197.688,30.913,133.172-32.9,260.965-159.309,310.6-32.2,12.644-43.518,28.7-39.681,61.236,3.6,30.576-6.63,71.327,9.553,89.291,14.128,15.677,56.557,7.012,86.492,7.09q231.653.632,463.3.156c58.832-.039,82.188-20.084,91.177-77.736,2.663-17.057,4.523-34.238,7.433-51.243,3.409-19.922,11.626-36.26,35.812-32,22.456,3.966,24.7,21.652,22.183,39.96-8.354,60.867-17.251,121.662-26.013,182.471q-40.789,283.223-81.677,566.433c-12.5,86.394-25.812,172.672-37.744,259.144-3.084,22.32-13.227,34.1-35.722,31.7-23.512-2.5-25.456-20.622-23.577-38.722,3.882-37.42,8.95-74.716,14.063-116.393-12.216-1.219-24.393-3.461-36.577-3.48-136.075-.253-272.164-.959-408.213.732-19.87.246-41.885,8.762-58.929,19.676-41.256,26.4-80.166,56.479-120.016,85.072l2.5,9.2h75.546c32.4,0,64.937-1.918,97.159.48,40.789,3.039,76.634-5.321,107.651-32.9,6.182-5.5,14.847-11.5,22.436-11.594,69.881-.888,139.776-.525,212.632-.525-8.73,63.161-16.934,122.473-25.6,185.173,11.776,1.173,20.952,2.826,30.129,2.878,47.516.259,95.04.447,142.556.013,55.021-.512,90.989-33.22,97.463-87.522,1.147-9.63,3.338-19.137,4.517-28.774,2.5-20.3,10.019-36.473,33.836-34.639,25.638,1.977,26.966,20.738,24.367,40.446-9.734,73.7-19.235,147.423-29.714,221.011q-17.761,124.75-37.212,249.248c-3.338,21.594-2.443,52.39-33.324,49.7-32.391-2.819-27.653-30.381-24.115-55.488,10.479-74.36-16.422-103.9-92.337-103.931-160.916-.065-321.832.512-482.741-.57-26.6-.181-37.458,7.265-34.763,34.535,1.905,19.248.985,38.865.233,58.275-.881,22.832-1.607,42.54,31.367,42.656,9.585.032,21.056,14.271,28.334,24.393,34.024,47.3,27.906,126.5-13.862,167.112-10.81,10.512-27.433,15.042-45.676,24.562v34.166c-.026,165.239-1.043,330.484.752,495.7.363,33.583-13.668,44.173-42.6,45.508-6.468.3-12.961.389-19.429.22-53.239-1.394-59.175-7.375-59.175-59.3-.007-164.156-.22-328.312.259-492.462.058-19.047-1.51-31.36-24.7-36.623-32.915-7.466-42.792-38.618-49.843-66.33-10.765-42.261-5.172-83.938,21.367-120.275,5.917-8.095,16.176-18.639,24.29-18.509,29.8.46,29.371-17.634,28.749-38.437-.681-22.656-.966-45.391.078-68.021.881-19.222-6-26.9-25.975-26.843-183.592.493-367.184.046-550.776.538-31.094.084-53.058,21.684-60.737,57.037-5.029,23.149-8.613,46.609-12.76,69.94-3.532,19.889-13.992,31.944-35.456,28.425-21.147-3.467-23.609-19.189-21.2-36.882,12.048-88.63,23.635-177.319,36.337-265.858q36.717-255.994,74.45-511.846,16.322-111.977,32.747-223.947c2.994-20.174,14.329-32.067,35.534-27.783,20.259,4.1,27.057,17.55,23.817,38.541C380.456,1206.714,377.2,1241.885,372.64,1280.438Zm362.181,429.49-2.45-5.962c126.827-92,253.661-184.007,384.26-278.742-119.854-105.979-234.018-206.922-352.22-311.437,11.665-2.158,16.792-3.927,21.924-3.927,142.55.039,285.112-.454,427.636,1.432,16.066.214,32.183,13.616,47.86,21.711,14.9,7.686,28.7,22.093,43.959,23.583,36.37,3.552,73.362,2.158,110.01.551,8.3-.363,22.307-8.743,23.35-15.126,11.121-67.8,20.155-135.946,30.181-206.942H582.6c-8.7,65.7-16.714,130.774-26.24,195.627-3.4,23.117,4.3,38.295,22.339,52.319,23.81,18.509,45.579,39.656,68.1,59.817,60.893,54.516,121.714,109.109,184.655,165.543-11.7,9.429-20.459,17.161-29.889,23.979Q651.981,1540.5,502.39,1648.62c-9.118,6.623-21.334,15.56-22.9,24.957-11.594,69.706-20.861,139.8-31.535,214.531,19.462,0,33.233.007,47,0q304.551-.1,609.1-.207c65.876-.02,131.753-.188,197.629.065,16.059.058,30.135-.519,32.9-21.38,8.58-64.924,17.764-129.77,26.655-194.214-55.844-17.343-124.494-8.133-168.187,19.857-12.281,7.868-26.973,16.818-40.627,16.94C1013.232,1710.407,874.02,1709.928,734.821,1709.928ZM887.157,530.18c12.968-31.931,28.2-39.4,76.829-38.755,28.249.376,57.25.117,56.985,40.154,63.673-12.067,115.11-91.235,111.345-167.9-4.251-86.64-74.464-156.9-162.666-162.756-91.1-6.059-164.6,51.139-183.482,142.789C770.31,420.682,815.454,505.326,887.157,530.18Zm726.357,502.4c-24.853,0-45.235,1.465-65.312-.4-22.65-2.093-29.9,8.114-32.417,28.846-5.2,42.721-14.75,85.02-17.958,127.832-2.126,28.437-15.1,33.252-39.37,32.546-45.255-1.316-90.671-2.132-135.849.233-31.25,1.64-55.287-8.256-79.473-27.089-13.849-10.79-34.062-17.88-51.7-18.516-61.4-2.2-122.919-.868-184.4-.881H937.855c31.256,39,64.716,70.361,99.025,100.762,4.912,4.355,13.927,5.69,21.049,5.71,167.17.324,334.34.531,501.5-.531,7.848-.052,21.38-11.205,22.527-18.684C1593.379,1188,1602.75,1113.275,1613.514,1032.577ZM298.864,1787.949c18.846,0,32.669.026,46.486,0,51.969-.1,58.566-.019,59.24-50.964,1.1-83.135,40.291-136.309,109.958-173.372,9.287-4.938,16.454-13.875,24.6-20.959-65.9-6.5-128.2-7.025-190.468-5.671-6.046.136-16.027,11.244-17.1,18.334C320.114,1630.837,310.076,1706.571,298.864,1787.949Z" transform="translate(-168.822 -109.25)" fill="#f6cf00"/>
</svg>
